<svg xmlns="http://www.w3.org/2000/svg" width="32" height="32" viewBox="0 0 32 32" fill="none">
  <path d="M12.0002 1.3335H4.00016C3.29292 1.3335 2.61464 1.61445 2.11454 2.11454C1.61445 2.61464 1.3335 3.29292 1.3335 4.00016V21.3335C1.3335 22.0407 1.61445 22.719 2.11454 23.2191C2.61464 23.7192 3.29292 24.0002 4.00016 24.0002H5.3335V20.0002H4.00016V4.00016H12.0002V14.6668H14.6668V4.00016C14.6668 3.29292 14.3859 2.61464 13.8858 2.11454C13.3857 1.61445 12.7074 1.3335 12.0002 1.3335ZM30.6668 28.0002V20.0002C30.6668 19.2929 30.3859 18.6146 29.8858 18.1145C29.3857 17.6144 28.7074 17.3335 28.0002 17.3335H10.6668C9.95959 17.3335 9.28131 17.6144 8.78121 18.1145C8.28111 18.6146 8.00016 19.2929 8.00016 20.0002V28.0002C8.00016 28.7074 8.28111 29.3857 8.78121 29.8858C9.28131 30.3859 9.95959 30.6668 10.6668 30.6668H28.0002C28.7074 30.6668 29.3857 30.3859 29.8858 29.8858C30.3859 29.3857 30.6668 28.7074 30.6668 28.0002ZM12.0002 28.0002V20.0002H28.0002V28.0002H12.0002ZM30.6668 13.3335H28.6668C28.6668 9.3335 26.2535 5.6935 22.5602 4.12016L21.3335 6.66683L18.6668 1.3335C21.8494 1.3335 24.9017 2.59778 27.1521 4.84821C29.4025 7.09865 30.6668 10.1509 30.6668 13.3335Z" fill="#A0A0A0"/>
</svg>