<svg xmlns="http://www.w3.org/2000/svg" width="250" height="250" viewBox="0 0 250 250" fill="none">
  <path d="M156.25 10.4165H218.75C224.276 10.4165 229.575 12.6114 233.482 16.5184C237.389 20.4255 239.583 25.7245 239.583 31.2498V166.667C239.583 172.192 237.389 177.491 233.482 181.398C229.575 185.305 224.276 187.5 218.75 187.5H156.25C150.725 187.5 145.426 185.305 141.519 181.398C137.612 177.491 135.417 172.192 135.417 166.667V31.2498C135.417 25.7245 137.612 20.4255 141.519 16.5184C145.426 12.6114 150.725 10.4165 156.25 10.4165ZM156.25 156.25H218.75V31.2498H156.25V156.25ZM31.2502 135.417H114.583V156.25H31.2502V218.75H156.25V208.333H187.5V218.75C187.5 224.275 185.305 229.574 181.398 233.481C177.491 237.388 172.192 239.583 166.667 239.583H31.2502C25.7248 239.583 20.4258 237.388 16.5188 233.481C12.6118 229.574 10.4168 224.275 10.4168 218.75V156.25C10.4168 150.725 12.6118 145.425 16.5188 141.518C20.4258 137.611 25.7248 135.417 31.2502 135.417ZM10.4168 104.167L52.0835 83.3332L32.1877 73.854C38.1741 59.7036 48.1897 47.6262 60.9881 39.1248C73.7864 30.6235 88.8023 26.0736 104.167 26.0415V10.4165C79.3028 10.4165 55.4571 20.2937 37.8756 37.8752C20.294 55.4568 10.4168 79.3025 10.4168 104.167Z" fill="white"/>
</svg>