<svg width="223" height="223" viewBox="0 0 223 223" fill="none" xmlns="http://www.w3.org/2000/svg">
<circle cx="111.5" cy="111.5" r="111.5" fill="#FFD600"/>
<path d="M67 170C62.875 170 59.345 168.533 56.41 165.598C53.475 162.663 52.005 159.13 52 155V140C52 137.875 52.72 136.095 54.16 134.66C55.6 133.225 57.38 132.505 59.5 132.5C61.62 132.495 63.4025 133.215 64.8475 134.66C66.2925 136.105 67.01 137.885 67 140V155H157V140C157 137.875 157.72 136.095 159.16 134.66C160.6 133.225 162.38 132.505 164.5 132.5C166.62 132.495 168.403 133.215 169.848 134.66C171.293 136.105 172.01 137.885 172 140V155C172 159.125 170.533 162.658 167.598 165.598C164.663 168.538 161.13 170.005 157 170H67ZM104.5 78.8751L90.4375 92.9376C88.9375 94.4376 87.1575 95.1576 85.0975 95.0976C83.0375 95.0376 81.255 94.2551 79.75 92.7501C78.375 91.2501 77.655 89.5001 77.59 87.5001C77.525 85.5001 78.245 83.7501 79.75 82.2501L106.75 55.2501C107.5 54.5001 108.313 53.9701 109.188 53.6601C110.063 53.3501 111 53.1926 112 53.1876C113 53.1826 113.938 53.3401 114.813 53.6601C115.688 53.9801 116.5 54.5101 117.25 55.2501L144.25 82.2501C145.75 83.7501 146.47 85.5001 146.41 87.5001C146.35 89.5001 145.63 91.2501 144.25 92.7501C142.75 94.2501 140.97 95.0326 138.91 95.0976C136.85 95.1626 135.068 94.4426 133.563 92.9376L119.5 78.8751V132.5C119.5 134.625 118.78 136.408 117.34 137.848C115.9 139.288 114.12 140.005 112 140C109.88 139.995 108.1 139.275 106.66 137.84C105.22 136.405 104.5 134.625 104.5 132.5V78.8751Z" fill="#1A1A1A"/>
</svg>
